<?xml version="1.0" encoding="UTF-8" standalone="no"?><svg xmlns="http://www.w3.org/2000/svg" xmlns:xlink="http://www.w3.org/1999/xlink" contentScriptType="application/ecmascript" contentStyleType="text/css" height="1487.5px" preserveAspectRatio="none" style="width:1595px;height:1487px;" version="1.1" viewBox="0 0 1595 1487" width="1595px" zoomAndPan="magnify"><defs/><g><rect fill="#FFFFFF" height="254.502" style="stroke: #000000; stroke-width: 2.5;" width="1055" x="177.5" y="375.1172"/><rect fill="#FFFFFF" height="107.5879" style="stroke: none; stroke-width: 1.25;" width="1055" x="177.5" y="522.0313"/><rect fill="#FFFFFF" height="436.0742" style="stroke: #000000; stroke-width: 2.5;" width="1390" x="177.5" y="782.7832"/><line style="stroke: #383838; stroke-width: 1.25; stroke-dasharray: 5.0,5.0;" x1="68.75" x2="68.75" y1="102.8711" y2="1378.6035"/><line style="stroke: #383838; stroke-width: 1.25; stroke-dasharray: 5.0,5.0;" x1="268.75" x2="268.75" y1="102.8711" y2="1378.6035"/><line style="stroke: #383838; stroke-width: 1.25; stroke-dasharray: 5.0,5.0;" x1="678.75" x2="678.75" y1="102.8711" y2="1378.6035"/><line style="stroke: #383838; stroke-width: 1.25; stroke-dasharray: 5.0,5.0;" x1="1146.25" x2="1146.25" y1="102.8711" y2="1378.6035"/><text fill="#000000" font-family="Courier" font-size="17.5" lengthAdjust="spacingAndGlyphs" textLength="110" x="10" y="98.7439">Sender (C1)</text><ellipse cx="68.75" cy="16.25" fill="#F8F8F8" rx="10" ry="10" style="stroke: #383838; stroke-width: 2.5;"/><path d="M68.75,26.25 L68.75,60 M52.5,36.25 L85,36.25 M68.75,60 L52.5,78.75 M68.75,60 L85,78.75 " fill="none" style="stroke: #383838; stroke-width: 2.5;"/><text fill="#000000" font-family="Courier" font-size="17.5" lengthAdjust="spacingAndGlyphs" textLength="110" x="10" y="1393.5974">Sender (C1)</text><ellipse cx="68.75" cy="1410.2246" fill="#F8F8F8" rx="10" ry="10" style="stroke: #383838; stroke-width: 2.5;"/><path d="M68.75,1420.2246 L68.75,1453.9746 M52.5,1430.2246 L85,1430.2246 M68.75,1453.9746 L52.5,1472.7246 M68.75,1453.9746 L85,1472.7246 " fill="none" style="stroke: #383838; stroke-width: 2.5;"/><rect fill="#F8F8F8" height="37.8711" style="stroke: #383838; stroke-width: 1.875;" width="157.5" x="190" y="63.75"/><text fill="#000000" font-family="Courier" font-size="17.5" lengthAdjust="spacingAndGlyphs" textLength="140" x="198.75" y="88.7439">Sender AP (C2)</text><rect fill="#F8F8F8" height="37.8711" style="stroke: #383838; stroke-width: 1.875;" width="157.5" x="190" y="1377.3535"/><text fill="#000000" font-family="Courier" font-size="17.5" lengthAdjust="spacingAndGlyphs" textLength="140" x="198.75" y="1402.3474">Sender AP (C2)</text><rect fill="#F8F8F8" height="58.2422" style="stroke: #383838; stroke-width: 1.875;" width="177.5" x="590" y="43.3789"/><text fill="#000000" font-family="Courier" font-size="17.5" lengthAdjust="spacingAndGlyphs" textLength="160" x="598.75" y="68.3728">Receiver AP (C3)</text><text fill="#000000" font-family="Courier" font-size="17.5" lengthAdjust="spacingAndGlyphs" textLength="160" x="598.75" y="88.7439">(Cloud Receiver)</text><rect fill="#F8F8F8" height="58.2422" style="stroke: #383838; stroke-width: 1.875;" width="177.5" x="590" y="1377.3535"/><text fill="#000000" font-family="Courier" font-size="17.5" lengthAdjust="spacingAndGlyphs" textLength="160" x="598.75" y="1402.3474">Receiver AP (C3)</text><text fill="#000000" font-family="Courier" font-size="17.5" lengthAdjust="spacingAndGlyphs" textLength="160" x="598.75" y="1422.7185">(Cloud Receiver)</text><text fill="#000000" font-family="Courier" font-size="17.5" lengthAdjust="spacingAndGlyphs" textLength="140" x="1072.5" y="98.7439">Recipient (C4)</text><ellipse cx="1146.25" cy="16.25" fill="#F8F8F8" rx="10" ry="10" style="stroke: #383838; stroke-width: 2.5;"/><path d="M1146.25,26.25 L1146.25,60 M1130,36.25 L1162.5,36.25 M1146.25,60 L1130,78.75 M1146.25,60 L1162.5,78.75 " fill="none" style="stroke: #383838; stroke-width: 2.5;"/><text fill="#000000" font-family="Courier" font-size="17.5" lengthAdjust="spacingAndGlyphs" textLength="140" x="1072.5" y="1393.5974">Recipient (C4)</text><ellipse cx="1146.25" cy="1410.2246" fill="#F8F8F8" rx="10" ry="10" style="stroke: #383838; stroke-width: 2.5;"/><path d="M1146.25,1420.2246 L1146.25,1453.9746 M1130,1430.2246 L1162.5,1430.2246 M1146.25,1453.9746 L1130,1472.7246 M1146.25,1453.9746 L1162.5,1472.7246 " fill="none" style="stroke: #383838; stroke-width: 2.5;"/><rect fill="#EEEEEE" height="3.75" style="stroke: #EEEEEE; stroke-width: 1.25;" width="1576.25" x="3.75" y="141.0791"/><line style="stroke: #000000; stroke-width: 1.25;" x1="3.75" x2="1580" y1="141.0791" y2="141.0791"/><line style="stroke: #000000; stroke-width: 1.25;" x1="3.75" x2="1580" y1="144.8291" y2="144.8291"/><rect fill="#EEEEEE" height="28.916" style="stroke: #000000; stroke-width: 2.5;" width="217.5" x="683.125" y="127.8711"/><text fill="#000000" font-family="Courier" font-size="16.25" font-weight="bold" lengthAdjust="spacingAndGlyphs" textLength="190" x="690.625" y="147.9547">Inbound AS4 Message</text><polygon fill="#383838" points="253.75,190.7031,266.25,195.7031,253.75,200.7031,258.75,195.7031" style="stroke: #383838; stroke-width: 1.25;"/><line style="stroke: #383838; stroke-width: 1.25;" x1="68.75" x2="261.25" y1="195.7031" y2="195.7031"/><text fill="#000000" font-family="Courier" font-size="16.25" lengthAdjust="spacingAndGlyphs" textLength="170" x="77.5" y="189.3707">Business Document</text><polygon fill="#383838" points="663.75,246.0352,676.25,251.0352,663.75,256.0352,668.75,251.0352" style="stroke: #383838; stroke-width: 1.25;"/><line style="stroke: #383838; stroke-width: 1.25;" x1="268.75" x2="671.25" y1="251.0352" y2="251.0352"/><text fill="#000000" font-family="Courier" font-size="16.25" lengthAdjust="spacingAndGlyphs" textLength="200" x="277.5" y="225.7867">POST AS4 UserMessage</text><text fill="#000000" font-family="Courier" font-size="16.25" lengthAdjust="spacingAndGlyphs" textLength="260" x="277.5" y="244.7028">(SBDH + encrypted payload)</text><line style="stroke: #383838; stroke-width: 1.25;" x1="678.75" x2="731.25" y1="287.4512" y2="287.4512"/><line style="stroke: #383838; stroke-width: 1.25;" x1="731.25" x2="731.25" y1="287.4512" y2="303.7012"/><line style="stroke: #383838; stroke-width: 1.25;" x1="680" x2="731.25" y1="303.7012" y2="303.7012"/><polygon fill="#383838" points="692.5,298.7012,680,303.7012,692.5,308.7012,687.5,303.7012" style="stroke: #383838; stroke-width: 1.25;"/><text fill="#000000" font-family="Courier" font-size="16.25" lengthAdjust="spacingAndGlyphs" textLength="310" x="687.5" y="281.1188">1. Parse / Decrypt / Verify Sig</text><line style="stroke: #383838; stroke-width: 1.25;" x1="678.75" x2="731.25" y1="340.1172" y2="340.1172"/><line style="stroke: #383838; stroke-width: 1.25;" x1="731.25" x2="731.25" y1="340.1172" y2="356.3672"/><line style="stroke: #383838; stroke-width: 1.25;" x1="680" x2="731.25" y1="356.3672" y2="356.3672"/><polygon fill="#383838" points="692.5,351.3672,680,356.3672,692.5,361.3672,687.5,356.3672" style="stroke: #383838; stroke-width: 1.25;"/><text fill="#000000" font-family="Courier" font-size="16.25" lengthAdjust="spacingAndGlyphs" textLength="280" x="687.5" y="333.7848">2. Validate UBL (Schematron)</text><path d="M177.5,375.1172 L263.75,375.1172 L263.75,383.8672 L251.25,396.3672 L177.5,396.3672 L177.5,375.1172 " fill="#EEEEEE" style="stroke: #000000; stroke-width: 1.25;"/><rect fill="none" height="254.502" style="stroke: #000000; stroke-width: 2.5;" width="1055" x="177.5" y="375.1172"/><text fill="#000000" font-family="Courier" font-size="16.25" font-weight="bold" lengthAdjust="spacingAndGlyphs" textLength="30" x="196.25" y="391.4508">alt</text><text fill="#000000" font-family="Courier" font-size="13.75" font-weight="bold" lengthAdjust="spacingAndGlyphs" textLength="61.25" x="282.5" y="390.3802">[Valid]</text><polygon fill="#383838" points="1131.25,417.9492,1143.75,422.9492,1131.25,427.9492,1136.25,422.9492" style="stroke: #383838; stroke-width: 1.25;"/><line style="stroke: #383838; stroke-width: 1.25;" x1="678.75" x2="1138.75" y1="422.9492" y2="422.9492"/><text fill="#000000" font-family="Courier" font-size="16.25" lengthAdjust="spacingAndGlyphs" textLength="280" x="687.5" y="416.6168">Forward / Store to Recipient</text><line style="stroke: #383838; stroke-width: 1.25;" x1="678.75" x2="731.25" y1="459.3652" y2="459.3652"/><line style="stroke: #383838; stroke-width: 1.25;" x1="731.25" x2="731.25" y1="459.3652" y2="475.6152"/><line style="stroke: #383838; stroke-width: 1.25;" x1="680" x2="731.25" y1="475.6152" y2="475.6152"/><polygon fill="#383838" points="692.5,470.6152,680,475.6152,692.5,480.6152,687.5,475.6152" style="stroke: #383838; stroke-width: 1.25;"/><text fill="#000000" font-family="Courier" font-size="16.25" lengthAdjust="spacingAndGlyphs" textLength="290" x="687.5" y="453.0328">Generate signed MDN (success)</text><polygon fill="#383838" points="282.5,507.0313,270,512.0313,282.5,517.0313,277.5,512.0313" style="stroke: #383838; stroke-width: 1.25;"/><line style="stroke: #383838; stroke-width: 1.25; stroke-dasharray: 2.0,2.0;" x1="275" x2="677.5" y1="512.0313" y2="512.0313"/><text fill="#000000" font-family="Courier" font-size="16.25" lengthAdjust="spacingAndGlyphs" textLength="210" x="290" y="505.6989">HTTP 200 + signed MDN</text><line style="stroke: #000000; stroke-width: 1.25; stroke-dasharray: 2.0,2.0;" x1="177.5" x2="1232.5" y1="523.2813" y2="523.2813"/><text fill="#000000" font-family="Courier" font-size="13.75" font-weight="bold" lengthAdjust="spacingAndGlyphs" textLength="78.75" x="183.75" y="536.0443">[Invalid]</text><line style="stroke: #383838; stroke-width: 1.25;" x1="678.75" x2="731.25" y1="566.9531" y2="566.9531"/><line style="stroke: #383838; stroke-width: 1.25;" x1="731.25" x2="731.25" y1="566.9531" y2="583.2031"/><line style="stroke: #383838; stroke-width: 1.25;" x1="680" x2="731.25" y1="583.2031" y2="583.2031"/><polygon fill="#383838" points="692.5,578.2031,680,583.2031,692.5,588.2031,687.5,583.2031" style="stroke: #383838; stroke-width: 1.25;"/><text fill="#000000" font-family="Courier" font-size="16.25" lengthAdjust="spacingAndGlyphs" textLength="210" x="687.5" y="560.6207">Generate negative MDN</text><polygon fill="#383838" points="282.5,614.6191,270,619.6191,282.5,624.6191,277.5,619.6191" style="stroke: #383838; stroke-width: 1.25;"/><line style="stroke: #383838; stroke-width: 1.25; stroke-dasharray: 2.0,2.0;" x1="275" x2="677.5" y1="619.6191" y2="619.6191"/><text fill="#000000" font-family="Courier" font-size="16.25" lengthAdjust="spacingAndGlyphs" textLength="230" x="290" y="613.2867">HTTP 200 + negative MDN</text><path d="M460,644.6191 L460,713.3691 L896.25,713.3691 L896.25,657.1191 L883.75,644.6191 L460,644.6191 " fill="#ECECEC" style="stroke: #383838; stroke-width: 1.25;"/><path d="M883.75,644.6191 L883.75,657.1191 L896.25,657.1191 L883.75,644.6191 " fill="#ECECEC" style="stroke: #383838; stroke-width: 1.25;"/><text fill="#000000" font-family="Courier" font-size="16.25" font-weight="bold" lengthAdjust="spacingAndGlyphs" textLength="230" x="467.5" y="665.9528">MDN must be synchronous</text><text fill="#000000" font-family="Courier" font-size="16.25" lengthAdjust="spacingAndGlyphs" textLength="0" x="717.5" y="665.9528"/><text fill="#000000" font-family="Courier" font-size="16.25" lengthAdjust="spacingAndGlyphs" textLength="80" x="467.5" y="684.8688">Returned</text><text fill="#000000" font-family="Courier" font-size="16.25" font-weight="bold" lengthAdjust="spacingAndGlyphs" textLength="110" x="557.5" y="684.8688">immediately</text><text fill="#000000" font-family="Courier" font-size="16.25" lengthAdjust="spacingAndGlyphs" textLength="160" x="677.5" y="684.8688">in HTTP response</text><text fill="#000000" font-family="Courier" font-size="16.25" lengthAdjust="spacingAndGlyphs" textLength="410" x="467.5" y="703.7848">(before full business processing outcome)</text><rect fill="#EEEEEE" height="3.75" style="stroke: #EEEEEE; stroke-width: 1.25;" width="1576.25" x="3.75" y="745.8252"/><line style="stroke: #000000; stroke-width: 1.25;" x1="3.75" x2="1580" y1="745.8252" y2="745.8252"/><line style="stroke: #000000; stroke-width: 1.25;" x1="3.75" x2="1580" y1="749.5752" y2="749.5752"/><rect fill="#EEEEEE" height="28.916" style="stroke: #000000; stroke-width: 2.5;" width="587.5" x="498.125" y="732.6172"/><text fill="#000000" font-family="Courier" font-size="16.25" font-weight="bold" lengthAdjust="spacingAndGlyphs" textLength="560" x="505.625" y="752.7008">Async MLS (Message Level Status) - After Response Return</text><path d="M177.5,782.7832 L643.75,782.7832 L643.75,791.5332 L631.25,804.0332 L177.5,804.0332 L177.5,782.7832 " fill="#EEEEEE" style="stroke: #000000; stroke-width: 1.25;"/><rect fill="none" height="436.0742" style="stroke: #000000; stroke-width: 2.5;" width="1390" x="177.5" y="782.7832"/><text fill="#000000" font-family="Courier" font-size="16.25" font-weight="bold" lengthAdjust="spacingAndGlyphs" textLength="410" x="196.25" y="799.1168">MLS - best-effort async send (if enabled)</text><line style="stroke: #383838; stroke-width: 1.25;" x1="678.75" x2="731.25" y1="830.6152" y2="830.6152"/><line style="stroke: #383838; stroke-width: 1.25;" x1="731.25" x2="731.25" y1="830.6152" y2="846.8652"/><line style="stroke: #383838; stroke-width: 1.25;" x1="680" x2="731.25" y1="846.8652" y2="846.8652"/><polygon fill="#383838" points="692.5,841.8652,680,846.8652,692.5,851.8652,687.5,846.8652" style="stroke: #383838; stroke-width: 1.25;"/><text fill="#000000" font-family="Courier" font-size="16.25" lengthAdjust="spacingAndGlyphs" textLength="280" x="687.5" y="824.2828">if N42_MLS_ENABLED == 'true'</text><line style="stroke: #383838; stroke-width: 1.25;" x1="678.75" x2="731.25" y1="883.2813" y2="883.2813"/><line style="stroke: #383838; stroke-width: 1.25;" x1="731.25" x2="731.25" y1="883.2813" y2="899.5313"/><line style="stroke: #383838; stroke-width: 1.25;" x1="680" x2="731.25" y1="899.5313" y2="899.5313"/><polygon fill="#383838" points="692.5,894.5313,680,899.5313,692.5,904.5313,687.5,899.5313" style="stroke: #383838; stroke-width: 1.25;"/><text fill="#000000" font-family="Courier" font-size="16.25" lengthAdjust="spacingAndGlyphs" textLength="330" x="687.5" y="876.9489">buildMlsOptions(context, success)</text><line style="stroke: #383838; stroke-width: 1.25;" x1="678.75" x2="731.25" y1="935.9473" y2="935.9473"/><line style="stroke: #383838; stroke-width: 1.25;" x1="731.25" x2="731.25" y1="935.9473" y2="952.1973"/><line style="stroke: #383838; stroke-width: 1.25;" x1="680" x2="731.25" y1="952.1973" y2="952.1973"/><polygon fill="#383838" points="692.5,947.1973,680,952.1973,692.5,957.1973,687.5,952.1973" style="stroke: #383838; stroke-width: 1.25;"/><text fill="#000000" font-family="Courier" font-size="16.25" lengthAdjust="spacingAndGlyphs" textLength="430" x="687.5" y="929.6149">generateMls() → UBL ApplicationResponse XML</text><line style="stroke: #383838; stroke-width: 1.25;" x1="678.75" x2="731.25" y1="1031.5283" y2="1031.5283"/><line style="stroke: #383838; stroke-width: 1.25;" x1="731.25" x2="731.25" y1="1031.5283" y2="1047.7783"/><line style="stroke: #383838; stroke-width: 1.25;" x1="680" x2="731.25" y1="1047.7783" y2="1047.7783"/><polygon fill="#383838" points="692.5,1042.7783,680,1047.7783,692.5,1052.7783,687.5,1047.7783" style="stroke: #383838; stroke-width: 1.25;"/><text fill="#000000" font-family="Courier" font-size="16.25" lengthAdjust="spacingAndGlyphs" textLength="220" x="687.5" y="987.3639">getMlsAdapter(context)</text><text fill="#000000" font-family="Courier" font-size="16.25" lengthAdjust="spacingAndGlyphs" textLength="340" x="687.5" y="1006.2799">platform is detected automatically</text><text fill="#000000" font-family="Courier" font-size="16.25" lengthAdjust="spacingAndGlyphs" textLength="40" x="687.5" y="1025.1959">from</text><text fill="#000000" font-family="Courier" font-size="16.25" font-weight="bold" lengthAdjust="spacingAndGlyphs" textLength="270" x="737.5" y="1025.1959">context.runtimeEnv.platform</text><path d="M1042.5,968.4473 L1042.5,1055.9473 L1408.75,1055.9473 L1408.75,980.9473 L1396.25,968.4473 L1042.5,968.4473 " fill="#ECECEC" style="stroke: #383838; stroke-width: 1.25;"/><path d="M1396.25,968.4473 L1396.25,980.9473 L1408.75,980.9473 L1396.25,968.4473 " fill="#ECECEC" style="stroke: #383838; stroke-width: 1.25;"/><text fill="#000000" font-family="Courier" font-size="16.25" lengthAdjust="spacingAndGlyphs" textLength="340" x="1050" y="989.7809">Returns platform-specific adapter:</text><text fill="#000000" font-family="Courier" font-size="16.25" lengthAdjust="spacingAndGlyphs" textLength="220" x="1050" y="1008.6969">• CloudflareMlsAdapter</text><text fill="#000000" font-family="Courier" font-size="16.25" lengthAdjust="spacingAndGlyphs" textLength="180" x="1050" y="1027.6129">• LambdaMlsAdapter</text><text fill="#000000" font-family="Courier" font-size="16.25" lengthAdjust="spacingAndGlyphs" textLength="170" x="1050" y="1046.5289">• AzureMlsAdapter</text><line style="stroke: #383838; stroke-width: 1.25;" x1="678.75" x2="731.25" y1="1132.1924" y2="1132.1924"/><line style="stroke: #383838; stroke-width: 1.25;" x1="731.25" x2="731.25" y1="1132.1924" y2="1148.4424"/><line style="stroke: #383838; stroke-width: 1.25;" x1="680" x2="731.25" y1="1148.4424" y2="1148.4424"/><polygon fill="#383838" points="692.5,1143.4424,680,1148.4424,692.5,1153.4424,687.5,1148.4424" style="stroke: #383838; stroke-width: 1.25;"/><text fill="#000000" font-family="Courier" font-size="16.25" lengthAdjust="spacingAndGlyphs" textLength="130" x="687.5" y="1088.028">scheduleTask(</text><text fill="#000000" font-family="Courier" font-size="16.25" lengthAdjust="spacingAndGlyphs" textLength="430" x="707.5" y="1106.944">mls.send(context, mlsXml, context.senderId)</text><text fill="#000000" font-family="Courier" font-size="16.25" lengthAdjust="spacingAndGlyphs" textLength="10" x="687.5" y="1125.86">)</text><path d="M1152.5,1069.1113 L1152.5,1156.6113 L1548.75,1156.6113 L1548.75,1081.6113 L1536.25,1069.1113 L1152.5,1069.1113 " fill="#ECECEC" style="stroke: #383838; stroke-width: 1.25;"/><path d="M1536.25,1069.1113 L1536.25,1081.6113 L1548.75,1081.6113 L1536.25,1069.1113 " fill="#ECECEC" style="stroke: #383838; stroke-width: 1.25;"/><text fill="#000000" font-family="Courier" font-size="16.25" lengthAdjust="spacingAndGlyphs" textLength="340" x="1160" y="1090.4449">Platform-specific fire-and-forget:</text><text fill="#000000" font-family="Courier" font-size="16.25" lengthAdjust="spacingAndGlyphs" textLength="370" x="1160" y="1109.361">• ctx.waitUntil(promise) - Cloudflare</text><text fill="#000000" font-family="Courier" font-size="16.25" lengthAdjust="spacingAndGlyphs" textLength="350" x="1160" y="1128.277">• Async Lambda invoke (Event) - AWS</text><text fill="#000000" font-family="Courier" font-size="16.25" lengthAdjust="spacingAndGlyphs" textLength="350" x="1160" y="1147.193">• Queue → separate function - Azure</text><polygon fill="#383838" points="282.5,1203.8574,270,1208.8574,282.5,1213.8574,277.5,1208.8574" style="stroke: #383838; stroke-width: 1.25;"/><line style="stroke: #383838; stroke-width: 1.25;" x1="275" x2="677.5" y1="1208.8574" y2="1208.8574"/><text fill="#000000" font-family="Courier" font-size="16.25" lengthAdjust="spacingAndGlyphs" textLength="210" x="290" y="1183.609">New outbound AS4 POST</text><text fill="#000000" font-family="Courier" font-size="16.25" lengthAdjust="spacingAndGlyphs" textLength="380" x="290" y="1202.525">(MLS msg: signed, encrypted, new SBDH)</text><path d="M430,1233.8574 L430,1358.8574 L926.25,1358.8574 L926.25,1246.3574 L913.75,1233.8574 L430,1233.8574 " fill="#ECECEC" style="stroke: #383838; stroke-width: 1.25;"/><path d="M913.75,1233.8574 L913.75,1246.3574 L926.25,1246.3574 L913.75,1233.8574 " fill="#ECECEC" style="stroke: #383838; stroke-width: 1.25;"/><text fill="#000000" font-family="Courier" font-size="16.25" font-weight="bold" lengthAdjust="spacingAndGlyphs" textLength="190" x="437.5" y="1255.191">MLS Characteristics</text><text fill="#000000" font-family="Courier" font-size="16.25" lengthAdjust="spacingAndGlyphs" textLength="220" x="447.5" y="1274.1071">• Separate AS4 message</text><text fill="#000000" font-family="Courier" font-size="16.25" lengthAdjust="spacingAndGlyphs" textLength="60" x="447.5" y="1293.0231">• Sent</text><text fill="#000000" font-family="Courier" font-size="16.25" font-weight="bold" lengthAdjust="spacingAndGlyphs" textLength="50" x="517.5" y="1293.0231">after</text><text fill="#000000" font-family="Courier" font-size="16.25" lengthAdjust="spacingAndGlyphs" textLength="30" x="577.5" y="1293.0231">MDN</text><text fill="#000000" font-family="Courier" font-size="16.25" lengthAdjust="spacingAndGlyphs" textLength="430" x="447.5" y="1311.9391">• Optional / configurable (N42_MLS_ENABLED)</text><text fill="#000000" font-family="Courier" font-size="16.25" lengthAdjust="spacingAndGlyphs" textLength="280" x="447.5" y="1330.8551">• Uses existing sender stack</text><text fill="#000000" font-family="Courier" font-size="16.25" lengthAdjust="spacingAndGlyphs" textLength="460" x="447.5" y="1349.7711">• SMP lookup happens inside mls.send() adapter</text><!--MD5=[f054702e2f61d93183efcc0559679b97]
@startuml
skinparam monochrome true
skinparam shadowing false
skinparam defaultFontName Courier
skinparam dpi 120

actor "Sender (C1)" as C1
participant "Sender AP (C2)" as C2
participant "Receiver AP (C3)\n(Cloud Receiver)" as C3
actor "Recipient (C4)" as C4

== Inbound AS4 Message ==

C1 -> C2: Business Document
C2 -> C3: POST AS4 UserMessage\n(SBDH + encrypted payload)

C3 -> C3: 1. Parse / Decrypt / Verify Sig
C3 -> C3: 2. Validate UBL (Schematron)

alt Valid
    C3 -> C4: Forward / Store to Recipient
    C3 -> C3: Generate signed MDN (success)
    C3 - -> C2: HTTP 200 + signed MDN
else Invalid
    C3 -> C3: Generate negative MDN
    C3 - -> C2: HTTP 200 + negative MDN
end

note over C3
  **MDN must be synchronous**  
  Returned **immediately** in HTTP response  
  (before full business processing outcome)
end note

== Async MLS (Message Level Status) - After Response Return ==

group MLS - best-effort async send (if enabled)
    C3 -> C3: if N42_MLS_ENABLED == 'true'
    C3 -> C3: buildMlsOptions(context, success)
    C3 -> C3: generateMls() → UBL ApplicationResponse XML
    C3 -> C3: getMlsAdapter(context)\nplatform is detected automatically\nfrom **context.runtimeEnv.platform**  
    note right
      Returns platform-specific adapter:
      • CloudflareMlsAdapter
      • LambdaMlsAdapter
      • AzureMlsAdapter
    end note
    C3 -> C3: scheduleTask(\n  mls.send(context, mlsXml, context.senderId)\n)
    note right
      Platform-specific fire-and-forget:
      • ctx.waitUntil(promise) - Cloudflare
      • Async Lambda invoke (Event) - AWS
      • Queue → separate function - Azure
    end note

    C3 -> C2: New outbound AS4 POST\n(MLS msg: signed, encrypted, new SBDH)
end

note over C3
 **MLS Characteristics**
  • Separate AS4 message
  • Sent **after** MDN
  • Optional / configurable (N42_MLS_ENABLED)
  • Uses existing sender stack
  • SMP lookup happens inside mls.send() adapter
end note

@enduml

PlantUML version 1.2020.02(Sun Mar 01 11:22:07 CET 2020)
(GPL source distribution)
Java Runtime: OpenJDK Runtime Environment
JVM: OpenJDK 64-Bit Server VM
Java Version: 17.0.18+8-Ubuntu-124.04.1
Operating System: Linux
Default Encoding: UTF-8
Language: en
Country: US
--></g></svg>